<svg width="35.000000" height="76.000000" viewBox="0 0 35 76" fill="none" xmlns="http://www.w3.org/2000/svg" xmlns:xlink="http://www.w3.org/1999/xlink">
	<desc>
			Created with Pixso.
	</desc>
	<defs/>
	<path id="т" d="M21.45 76L21.45 44.8L35 44.8L35 37L0 37L0 44.8L13.65 44.8L13.65 76L21.45 76Z" fill="#2194FF" fill-opacity="1.000000" fill-rule="nonzero"/>
	<path id="Vector" d="M20.74 6.42C19.61 7.35 19.31 9.04 19.84 11.49C19.71 10.06 20.32 8.92 21.65 8.07C22.54 7.27 22.84 5.73 22.56 3.47C22.32 4.82 21.72 5.81 20.74 6.43L20.74 6.42ZM13.98 28.46C12.81 27.27 12.14 25.71 12.1 24.07C12.05 22.43 12.63 20.84 13.72 19.59C14.81 18.43 14.99 17.17 14.28 15.79C15.34 16.36 15.86 17.77 15.83 20.01C17.57 16.53 17.5 13.63 15.62 11.29C16.35 11.48 17.07 11.72 17.77 12C17.54 10.72 17.08 9.64 16.37 8.75C14.96 6.1 15.05 3.18 16.62 0C15.95 2.06 16.29 4.02 17.64 5.88C18.96 7.76 19.27 9.92 18.58 12.36C22.78 14.43 24.04 18.12 22.36 23.44C23.71 22.55 24.2 20.98 23.84 18.72C25.66 22.02 25.8 24.71 24.28 26.8C25.42 25.46 26.07 23.79 26.1 22.06C26.15 19.79 25.69 17.99 24.71 16.65C23.35 15.04 22.53 13.7 22.27 12.62C21.67 8.66 22.62 5.82 25.11 4.11C22.89 6.6 23.03 9.93 25.52 14.09C25.11 11.75 25.7 10.32 27.3 9.79C25.69 10.43 25.85 13.57 27.76 19.23C28.29 21.55 27.91 23.98 26.7 26.06C25.49 28.13 23.53 29.7 21.2 30.47C18.87 31.24 16.32 31.16 14.05 30.24C11.77 29.31 9.93 27.62 8.87 25.47C7.38 22.06 7.79 17.96 10.11 13.16C11.65 10.64 12.45 7.67 12.5 4.26C12.23 2.61 11.67 1.29 10.81 0.29C13.48 2.53 14.91 4.98 15.09 7.64C15.28 10.06 14.65 12.2 13.19 14.07C11.21 16.73 10.25 19.79 10.3 23.27C10.5 24.33 10.93 25.35 11.56 26.24C12.2 27.13 13.02 27.89 13.98 28.45L13.98 28.46ZM20.45 29.26C22.38 27.65 22.5 25.63 20.82 23.2C19.45 21.3 18.95 19.56 19.32 17.98C16.87 19.25 16.94 23.12 17.61 26.2C16.9 25.67 15.62 23.1 15.67 21.86C13.72 24.83 13.88 27.33 16.13 29.34C17.55 29.7 19.04 29.67 20.45 29.26L20.45 29.26Z" fill="#2194FF" fill-opacity="1.000000" fill-rule="evenodd"/>
</svg>
