<?xml version="1.0" encoding="utf-8"?><svg viewBox="0 0 25 25" xmlns="http://www.w3.org/2000/svg" xmlns:xlink="http://www.w3.org/1999/xlink"><style>:root>svg{display:none}:root>svg:target{display:block}</style><svg class="aacordArrow" viewBox="0 0 13.722 16" id="svg--acordArrow" xmlns="http://www.w3.org/2000/svg"><path d="M5.738.962c-.01.065-.016.132-.015.198v11.287l-.114-.246a2.29 2.29 0 0 0-.458-.647L1.985 8.39A1.185 1.185 0 0 0 .47 8.223a1.145 1.145 0 0 0-.15 1.717l5.725 5.724a1.145 1.145 0 0 0 1.619.001l5.724-5.725a1.145 1.145 0 0 0-.114-1.717 1.185 1.185 0 0 0-1.517.166l-3.17 3.16c-.169.168-.31.36-.419.572l-.154.344V1.223A1.185 1.185 0 0 0 7.05.015a1.145 1.145 0 0 0-1.313.947Z" fill="#FFF"/></svg><svg fill="none" viewBox="0 0 16 16" id="svg--arrow-svg" xmlns="http://www.w3.org/2000/svg"><defs><clipPath id="ba"><path transform="matrix(-1 0 0 1 16 0)" fill="#fff" fill-opacity="0" d="M0 0h16v16H0z"/></clipPath></defs><path fill="none" d="M16 0H0v16h16z"/><g clip-path="url(#ba)"><path d="M.96 6.87c.06-.01.13-.01.19-.01h11.29l-.24-.12c-.24-.11-.46-.27-.65-.46L8.38 3.12c-.41-.4-.48-1.04-.16-1.52.37-.51 1.09-.62 1.6-.24l.12.09 5.72 5.73c.45.44.45 1.17 0 1.62l-5.72 5.72c-.45.45-1.18.45-1.62 0a.996.996 0 0 1-.1-.11c-.32-.48-.25-1.12.16-1.52l3.16-3.17c.17-.17.36-.31.58-.42l.34-.15H1.22c-.59.02-1.1-.39-1.21-.96-.1-.63.32-1.22.95-1.32Z" fill="#2194FF"/></g></svg><svg fill="none" viewBox="0 0 22 23" id="svg--cloudy" xmlns="http://www.w3.org/2000/svg"><g opacity=".4" clip-path="url(#ca)" fill="#F1F1F1"><path d="M7.938 4.144a.645.645 0 0 0 .645-.645V2.201a.645.645 0 0 0-1.29 0V3.5c0 .356.29.645.645.645ZM2.09 6.505l-1.123-.65a.644.644 0 1 0-.645 1.117l1.124.649a.644.644 0 1 0 .645-1.116ZM1.446 13.631l-1.124.65c-.569.328-.335 1.202.323 1.202.292 0 .366-.141 1.446-.735a.644.644 0 0 0-.645-1.117ZM14.43 7.62l1.124-.648a.644.644 0 1 0-.645-1.116l-1.124.649a.644.644 0 1 0 .645 1.116ZM6.635 12.259a6.122 6.122 0 0 1 5.226-4.976 5.145 5.145 0 0 0-3.923-1.815 5.163 5.163 0 0 0-5.156 5.159 5.14 5.14 0 0 0 1.389 3.517 4.933 4.933 0 0 1 2.464-1.885Z"/><path d="M17.14 11.542A4.846 4.846 0 0 0 12.66 8.52a4.835 4.835 0 0 0-4.834 4.787c-1.83.2-3.223 1.771-3.223 3.613a3.639 3.639 0 0 0 3.634 3.636c10.141-.01 9.586.026 9.763-.03a4.514 4.514 0 0 0-.858-8.985Z"/></g><defs><clipPath id="ca"><path fill="#fff" transform="translate(0 .054)" d="M0 0h22v22.008H0z"/></clipPath></defs></svg><svg fill="none" viewBox="0 0 20 20.007" id="svg--moon" xmlns="http://www.w3.org/2000/svg"><defs><clipPath id="da"><path fill="#fff" fill-opacity="0" d="M0 0h20v20.007H0z"/></clipPath></defs><g opacity=".4"><path fill="none" d="M0 0h20v20.007H0z"/><g clip-path="url(#da)"><path d="M19.51 11.39c-.21-.05-.41 0-.59.13-.66.56-1.43 1.02-2.28 1.33-.79.31-1.66.46-2.58.46-2.07 0-3.96-.85-5.32-2.2a7.556 7.556 0 0 1-2.2-5.32c0-.87.16-1.72.41-2.48.28-.82.69-1.57 1.23-2.2.23-.29.18-.7-.1-.93C7.9.06 7.69.01 7.49.06 5.31.64 3.42 1.95 2.07 3.69A10.053 10.053 0 0 0 0 9.83c0 2.79 1.12 5.32 2.96 7.16 1.84 1.84 4.35 2.97 7.16 2.97 2.36 0 4.53-.82 6.27-2.17a10.18 10.18 0 0 0 3.58-5.61c.1-.36-.1-.71-.46-.79Z" fill="#F1F1F1"/></g></g></svg><svg fill="none" viewBox="0 0 22 22" id="svg--snow" xmlns="http://www.w3.org/2000/svg"><path d="M12 9.712a.367.367 0 0 0-.315-.179h-1.37a.367.367 0 0 0-.314.178l-.66 1.1a.367.367 0 0 0 0 .377l.66 1.1a.368.368 0 0 0 .314.179h1.37a.366.366 0 0 0 .314-.178l.66-1.1a.366.366 0 0 0 0-.377l-.66-1.1Z" fill="#2194FF"/><path d="m19.904 15.294-1.467-.846 1.18-.434a.763.763 0 0 0 .497-.884.735.735 0 0 0-.963-.507l-2.366.87-1.858-1.072.62-1.048a.733.733 0 0 0 0-.746l-.62-1.047 1.858-1.073 2.366.87a.733.733 0 0 0 .976-.565.758.758 0 0 0-.504-.824l-1.185-.435 1.467-.847a.76.76 0 0 0 .338-.953.734.734 0 0 0-1.037-.337l-1.503.868.214-1.237a.764.764 0 0 0-.47-.859.733.733 0 0 0-.968.567l-.43 2.483-1.87 1.08-.584-.99a.733.733 0 0 0-.63-.361h-1.232V4.744l1.907-1.589a.761.761 0 0 0 .195-.957.733.733 0 0 0-1.104-.195l-.998.831V1.14a.76.76 0 0 0-.61-.762.733.733 0 0 0-.856.723v1.734l-.968-.806a.76.76 0 0 0-.976-.019.733.733 0 0 0 .008 1.121l1.936 1.614v2.223H9.035a.733.733 0 0 0-.631.36l-.585.99-1.87-1.08-.422-2.442a.763.763 0 0 0-.78-.648.733.733 0 0 0-.673.857l.22 1.278-1.466-.847a.76.76 0 0 0-.966.146.733.733 0 0 0 .198 1.104l1.504.867-1.186.436a.759.759 0 0 0-.505.824.733.733 0 0 0 .977.565l2.365-.87L7.073 9.58l-.62 1.047a.733.733 0 0 0 0 .746l.62 1.048-1.858 1.072-2.365-.87a.735.735 0 0 0-.964.507.763.763 0 0 0 .497.884l1.179.433-1.464.843a.764.764 0 0 0-.336.968.734.734 0 0 0 1.03.325l1.504-.868-.214 1.242a.75.75 0 0 0 .715.9.734.734 0 0 0 .722-.609l.43-2.484 1.87-1.08.584.99a.733.733 0 0 0 .632.36h1.232v2.222l-1.907 1.59a.76.76 0 0 0-.194.957.733.733 0 0 0 1.104.195l.997-.832v1.695a.76.76 0 0 0 .61.762.732.732 0 0 0 .856-.723v-1.734l.998.83a.735.735 0 0 0 1.117-.217.756.756 0 0 0-.204-.93l-1.91-1.593v-2.223h1.231a.733.733 0 0 0 .631-.36l.585-.99 1.87 1.08.43 2.484a.733.733 0 0 0 .721.608.755.755 0 0 0 .716-.905l-.213-1.232 1.503.867a.734.734 0 0 0 1.031-.325.763.763 0 0 0-.335-.966Zm-6.616-3.728-.66 1.1a1.105 1.105 0 0 1-.943.534h-1.37a1.104 1.104 0 0 1-.943-.534l-.66-1.1a1.096 1.096 0 0 1 0-1.132l.66-1.1a1.105 1.105 0 0 1 .943-.534h1.37a1.105 1.105 0 0 1 .943.534l.66 1.1a1.095 1.095 0 0 1 0 1.132Z" fill="#2194FF"/></svg><svg fill="none" viewBox="0 0 25 25" id="svg--sun" xmlns="http://www.w3.org/2000/svg"><defs><clipPath id="fa"><path fill="#fff" fill-opacity="0" d="M0 0h25v25H0z"/></clipPath></defs><path fill="none" d="M0 0h25v25H0z"/><g clip-path="url(#fa)" fill="#2194FF"><path d="M12.5 6.23c-3.46 0-6.27 2.81-6.27 6.27 0 3.45 2.81 6.26 6.27 6.26a6.27 6.27 0 0 0 6.26-6.26c0-3.46-2.81-6.27-6.26-6.27ZM12.5 4.39c-.68 0-1.23-.54-1.23-1.22V1.22c0-.68.55-1.22 1.23-1.22.67 0 1.22.54 1.22 1.22v1.95c0 .68-.55 1.22-1.22 1.22ZM12.5 20.6c-.68 0-1.23.54-1.23 1.22v1.95c0 .68.55 1.23 1.23 1.23.67 0 1.22-.55 1.22-1.23v-1.95c0-.68-.55-1.22-1.22-1.22ZM18.22 6.77c-.47-.48-.47-1.25 0-1.73l1.39-1.38c.47-.48 1.25-.48 1.72 0 .48.47.48 1.25 0 1.72l-1.38 1.39c-.48.47-1.25.47-1.73 0ZM6.77 18.22c-.48-.47-1.25-.47-1.73 0l-1.38 1.39c-.48.47-.48 1.25 0 1.72.47.48 1.25.48 1.72 0l1.39-1.38c.47-.48.47-1.25 0-1.73ZM20.6 12.5c0-.68.54-1.23 1.22-1.23h1.95c.68 0 1.23.55 1.23 1.23 0 .67-.55 1.22-1.23 1.22h-1.95c-.68 0-1.22-.55-1.22-1.22ZM4.39 12.5c0-.68-.54-1.23-1.22-1.23H1.22c-.68 0-1.22.55-1.22 1.23 0 .67.54 1.22 1.22 1.22h1.95c.68 0 1.22-.55 1.22-1.22ZM18.22 18.22c.48-.47 1.25-.47 1.73 0l1.38 1.39c.48.47.48 1.25 0 1.72-.47.48-1.25.48-1.72 0l-1.39-1.38c-.47-.48-.47-1.25 0-1.73ZM6.77 6.77c.47-.48.47-1.25 0-1.73L5.38 3.66c-.47-.48-1.25-.48-1.72 0-.48.47-.48 1.25 0 1.72l1.38 1.39c.48.47 1.25.47 1.73 0Z"/></g></svg></svg>